<svg width="9" height="14" viewBox="0 0 9 14" fill="none" xmlns="http://www.w3.org/2000/svg">
<path d="M0.792969 7.06445C0.792969 7.39941 0.916016 7.67969 1.19629 7.95312L6.36426 13.0186C6.57617 13.2236 6.82227 13.3262 7.12305 13.3262C7.72461 13.3262 8.22363 12.8408 8.22363 12.2393C8.22363 11.9316 8.09375 11.6582 7.86816 11.4326L3.36328 7.05762L7.86816 2.68945C8.09375 2.4707 8.22363 2.19043 8.22363 1.88965C8.22363 1.29492 7.72461 0.802734 7.12305 0.802734C6.82227 0.802734 6.57617 0.905273 6.36426 1.11035L1.19629 6.17578C0.916016 6.44238 0.799805 6.72266 0.792969 7.06445Z" fill="white"/>
</svg>
