<svg width="11" height="18" viewBox="0 0 11 18" fill="none" xmlns="http://www.w3.org/2000/svg">
<path d="M1.68153 18C2.14195 18 2.51228 17.8435 2.83258 17.5304L10.3694 10.35C10.7998 9.92935 10.99 9.51848 11 9C11 8.4913 10.7998 8.06087 10.3694 7.65L2.84258 0.459783C2.51228 0.156522 2.13194 0 1.68153 0C0.760692 0 0 0.723913 0 1.62391C0 2.07391 0.200182 2.48478 0.540491 2.82717L7.07643 9.00978L0.540491 15.1728C0.190173 15.5152 0 15.9261 0 16.3761C0 17.2663 0.760692 18 1.68153 18Z" fill="#9C0E43"/>
</svg>
