<svg width="41" height="42" viewBox="0 0 41 42" fill="none" xmlns="http://www.w3.org/2000/svg">
<path d="M20.6914 41.1133C31.7461 41.1133 40.8867 31.9727 40.8867 20.918C40.8867 9.84375 31.7266 0.703125 20.6719 0.703125C9.61719 0.703125 0.496094 9.84375 0.496094 20.918C0.496094 31.9727 9.63672 41.1133 20.6914 41.1133ZM32 20.8984C32 21.5039 31.7656 21.9922 31.2773 22.4609L23.875 29.7461C23.5039 30.0781 23.0938 30.2734 22.5469 30.2734C21.5312 30.2734 20.7695 29.5117 20.7695 28.4766C20.7695 27.9297 21.0039 27.4609 21.3359 27.1484L23.9727 24.6289L26.4336 22.6367L21.9219 22.8516H11.2969C10.1836 22.8516 9.40234 22.0117 9.40234 20.8984C9.42188 19.7656 10.1836 18.9453 11.2969 18.9453H21.9219L26.4141 19.1406L23.9531 17.168L21.3359 14.6289C21.0039 14.3164 20.7695 13.8477 20.7695 13.3203C20.7695 12.2852 21.5312 11.5234 22.5469 11.5234C23.0938 11.5234 23.5039 11.6992 23.875 12.0508L31.2773 19.3359C31.7852 19.8242 32 20.3125 32 20.8984Z" fill="#9C0E43"/>
</svg>
