<svg width="20" height="18" viewBox="0 0 20 18" fill="none" xmlns="http://www.w3.org/2000/svg">
<path d="M8.01758 17.8066C8.68815 17.8066 9.20247 17.543 9.56055 17.0156L18.6523 3.09961C18.776 2.9043 18.8672 2.71549 18.9258 2.5332C18.9844 2.35091 19.0137 2.17513 19.0137 2.00586C19.0137 1.55013 18.8607 1.17253 18.5547 0.873047C18.2487 0.573568 17.8613 0.423828 17.3926 0.423828C17.0736 0.423828 16.8034 0.488932 16.582 0.619141C16.3672 0.742839 16.1589 0.957682 15.957 1.26367L7.97852 13.8711L3.91602 8.8418C3.57096 8.41862 3.13802 8.20703 2.61719 8.20703C2.14844 8.20703 1.75781 8.36003 1.44531 8.66602C1.13932 8.96549 0.986328 9.34635 0.986328 9.80859C0.986328 10.0104 1.02214 10.2057 1.09375 10.3945C1.16536 10.5833 1.28906 10.7786 1.46484 10.9805L6.50391 17.084C6.90755 17.5658 7.41211 17.8066 8.01758 17.8066Z" fill="#9C0E43"/>
</svg>
