<svg width="9" height="9" viewBox="0 0 9 9" fill="none" xmlns="http://www.w3.org/2000/svg">
<path d="M3.47461 8.78613C3.68294 8.78613 3.84733 8.69499 3.96777 8.5127L8.58203 1.24707C8.62435 1.17871 8.65527 1.11686 8.6748 1.06152C8.69434 1.00293 8.7041 0.944336 8.7041 0.885742C8.7041 0.752279 8.66341 0.644857 8.58203 0.563477C8.50065 0.482096 8.39323 0.441406 8.25977 0.441406C8.16211 0.441406 8.08236 0.460938 8.02051 0.5C7.95866 0.535807 7.89844 0.599284 7.83984 0.69043L3.45508 7.67773L1.17969 4.69922C1.0625 4.53971 0.922526 4.45996 0.759766 4.45996C0.623047 4.45996 0.510742 4.50391 0.422852 4.5918C0.334961 4.67643 0.291016 4.78548 0.291016 4.91895C0.291016 4.97754 0.302409 5.03776 0.325195 5.09961C0.347982 5.1582 0.383789 5.2168 0.432617 5.27539L2.9668 8.50293C3.11328 8.69173 3.28255 8.78613 3.47461 8.78613Z" fill="#9C0E43"/>
</svg>
