<?xml version="1.0" encoding="utf-8"?>
<svg width="17" height="27" viewBox="0 0 17 27" fill="none" xmlns="http://www.w3.org/2000/svg">
  <path d="M1.57812 26.0898C1.85938 26.0898 2.125 25.9922 2.375 25.7969C2.625 25.6094 3.01562 25.2578 3.54688 24.7422L8.12891 20.2305C8.19922 20.1523 8.26953 20.1523 8.33984 20.2305L12.9219 24.7422C13.4531 25.25 13.8398 25.6016 14.082 25.7969C14.332 25.9922 14.6016 26.0898 14.8906 26.0898C15.2812 26.0898 15.5859 25.9648 15.8047 25.7148C16.0234 25.4648 16.1328 25.1133 16.1328 24.6602V4.31641C16.1328 3.19922 15.8555 2.35938 15.3008 1.79688C14.7461 1.23438 13.918 0.953125 12.8164 0.953125H3.65234C2.55078 0.953125 1.72266 1.23438 1.16797 1.79688C0.613281 2.35938 0.335938 3.19922 0.335938 4.31641V24.6602C0.335938 25.1133 0.445312 25.4648 0.664062 25.7148C0.882812 25.9648 1.1875 26.0898 1.57812 26.0898ZM2.53906 22.9258C2.45312 23.0039 2.37109 23.0312 2.29297 23.0078C2.22266 22.9922 2.1875 22.9258 2.1875 22.8086V4.33984C2.1875 3.83203 2.31641 3.44922 2.57422 3.19141C2.83984 2.93359 3.23047 2.80469 3.74609 2.80469H12.7344C13.2422 2.80469 13.625 2.93359 13.8828 3.19141C14.1484 3.44922 14.2812 3.83203 14.2812 4.33984V22.8086C14.2812 22.9258 14.2422 22.9922 14.1641 23.0078C14.0938 23.0312 14.0156 23.0039 13.9297 22.9258L8.85547 18.0039C8.66797 17.8242 8.46094 17.7344 8.23438 17.7344C8.00781 17.7344 7.80078 17.8242 7.61328 18.0039L2.53906 22.9258Z" style="fill: rgb(255, 255, 255);"/>
</svg>