<svg width="13" height="20" viewBox="0 0 13 20" fill="none" xmlns="http://www.w3.org/2000/svg">
<path d="M1.18359 19.0674C1.61426 19.0674 1.86914 18.8213 2.66016 18.0566L6.09668 14.6729C6.14062 14.6289 6.21973 14.6289 6.25488 14.6729L9.69141 18.0566C10.4824 18.8213 10.7373 19.0674 11.168 19.0674C11.7568 19.0674 12.0996 18.6807 12.0996 17.9951V2.7373C12.0996 1.06738 11.2646 0.214844 9.6123 0.214844H2.73926C1.08691 0.214844 0.251953 1.06738 0.251953 2.7373V17.9951C0.251953 18.6807 0.594727 19.0674 1.18359 19.0674ZM1.9043 16.6943C1.78125 16.8174 1.64062 16.7822 1.64062 16.6064V2.75488C1.64062 1.99902 2.03613 1.60352 2.80957 1.60352H9.55078C10.3154 1.60352 10.7109 1.99902 10.7109 2.75488V16.6064C10.7109 16.7822 10.5791 16.8174 10.4473 16.6943L6.6416 13.0029C6.36035 12.7305 5.99121 12.7305 5.70996 13.0029L1.9043 16.6943Z" fill="#949494"/>
</svg>
