<svg width="15" height="10" viewBox="0 0 15 10" fill="none" xmlns="http://www.w3.org/2000/svg">
<path d="M7.37891 9.69287C11.6812 9.69287 14.6567 6.2124 14.6567 5.12744C14.6567 4.03711 11.6758 0.562012 7.37891 0.562012C3.10889 0.562012 0.0957031 4.03711 0.0957031 5.12744C0.0957031 6.2124 3.13037 9.69287 7.37891 9.69287ZM7.37891 8.11914C5.70312 8.11914 4.38184 6.76025 4.37109 5.12744C4.36572 3.45166 5.70312 2.13574 7.37891 2.13574C9.04395 2.13574 10.3813 3.45166 10.3813 5.12744C10.3813 6.76025 9.04395 8.11914 7.37891 8.11914ZM7.37891 6.20703C7.9751 6.20703 8.46924 5.71826 8.46924 5.12744C8.46924 4.53125 7.9751 4.04248 7.37891 4.04248C6.77734 4.04248 6.2832 4.53125 6.2832 5.12744C6.2832 5.71826 6.77734 6.20703 7.37891 6.20703Z" fill="#808080"/>
</svg>
