<svg width="25" height="25" viewBox="0 0 25 25" fill="none" xmlns="http://www.w3.org/2000/svg">
<path d="M12.0508 24.4922C18.5898 24.4922 24.0039 19.0664 24.0039 12.5391C24.0039 6 18.5781 0.585938 12.0391 0.585938C5.51172 0.585938 0.0976562 6 0.0976562 12.5391C0.0976562 19.0664 5.52344 24.4922 12.0508 24.4922ZM12.0508 22.5C6.51953 22.5 2.10156 18.0703 2.10156 12.5391C2.10156 7.00781 6.50781 2.57812 12.0391 2.57812C17.5703 2.57812 22 7.00781 22.0117 12.5391C22.0234 18.0703 17.582 22.5 12.0508 22.5ZM8.04297 17.4961C8.3125 17.4961 8.54688 17.3906 8.72266 17.2031L12.0391 13.875L15.3789 17.2031C15.5547 17.3789 15.7773 17.4961 16.0469 17.4961C16.5625 17.4961 16.9844 17.0742 16.9844 16.5469C16.9844 16.2773 16.8906 16.0664 16.7031 15.8789L13.375 12.5508L16.7148 9.19922C16.9141 9 16.9961 8.80078 16.9961 8.54297C16.9961 8.02734 16.5742 7.60547 16.0586 7.60547C15.8125 7.60547 15.6133 7.69922 15.4141 7.89844L12.0391 11.2383L8.69922 7.91016C8.52344 7.72266 8.3125 7.62891 8.04297 7.62891C7.52734 7.62891 7.10547 8.03906 7.10547 8.55469C7.10547 8.8125 7.21094 9.03516 7.38672 9.21094L10.7148 12.5508L7.38672 15.8906C7.21094 16.0664 7.10547 16.2891 7.10547 16.5469C7.10547 17.0742 7.52734 17.4961 8.04297 17.4961Z" fill="white"/>
</svg>
