<svg width="22" height="22" viewBox="0 0 22 22" fill="none" xmlns="http://www.w3.org/2000/svg">
<path d="M11 22C17.0417 22 22 17.0336 22 10.9948C22 4.9664 17.0312 0 11 0C4.95833 0 0 4.9664 0 10.9948C0 17.0336 4.96875 22 11 22ZM7.71875 15.4718C7.05208 15.4718 6.53125 14.9408 6.53125 14.2641C6.53125 13.9621 6.65625 13.6602 6.88542 13.4416L9.3125 11.0156L6.88542 8.58968C6.65625 8.36063 6.53125 8.0691 6.53125 7.76716C6.53125 7.07998 7.05208 6.56981 7.71875 6.56981C8.08333 6.56981 8.35417 6.68434 8.59375 6.91339L11 9.3185L13.4271 6.91339C13.6771 6.66351 13.9479 6.55939 14.3021 6.55939C14.9688 6.55939 15.4896 7.07998 15.4896 7.74633C15.4896 8.05868 15.375 8.35021 15.1354 8.57927L12.7083 11.0156L15.125 13.4311C15.3646 13.6602 15.4896 13.9517 15.4896 14.2641C15.4896 14.9408 14.9688 15.4718 14.2917 15.4718C13.9375 15.4718 13.6354 15.3469 13.4063 15.1178L11 12.7127L8.60417 15.1178C8.375 15.3469 8.08333 15.4718 7.71875 15.4718Z" fill="#808080"/>
</svg>
