<svg width="13" height="13" viewBox="0 0 13 13" fill="none" xmlns="http://www.w3.org/2000/svg">
<path d="M0.469727 11.1719C0.170898 11.4707 0.162109 11.9805 0.469727 12.2881C0.768555 12.5957 1.27832 12.5869 1.58594 12.2881L6.08594 7.7793L10.5947 12.2881C10.8936 12.5869 11.4033 12.5957 11.7021 12.2881C12.0186 11.9805 12.0098 11.4707 11.7021 11.1719L7.20215 6.66309L11.7021 2.16309C12.0098 1.86426 12.0186 1.3457 11.7021 1.04688C11.4033 0.739258 10.8936 0.748047 10.5947 1.04688L6.08594 5.55566L1.58594 1.04688C1.27832 0.748047 0.768555 0.739258 0.469727 1.04688C0.162109 1.3457 0.170898 1.86426 0.469727 2.16309L4.96973 6.66309L0.469727 11.1719Z" fill="black"/>
</svg>
