<svg width="14" height="16" viewBox="0 0 14 16" fill="none" xmlns="http://www.w3.org/2000/svg">
<path d="M1.875 4.11426L2.3125 13.8555C2.36035 14.874 2.95508 15.4004 3.9668 15.4004H9.73633C10.748 15.4004 11.3428 14.874 11.3838 13.8555L11.8281 4.11426H12.5664C12.9561 4.11426 13.25 3.82715 13.25 3.4375C13.25 3.04785 12.9561 2.76074 12.5664 2.76074H9.85938V1.94043C9.85938 0.860352 9.1416 0.204102 8.00684 0.204102H5.68262C4.54785 0.204102 3.83008 0.860352 3.83008 1.94043V2.76074H1.13672C0.753906 2.76074 0.446289 3.05469 0.446289 3.4375C0.446289 3.82715 0.753906 4.11426 1.13672 4.11426H1.875ZM5.09473 1.92676C5.10156 1.55762 5.375 1.29785 5.77148 1.29785H7.9248C8.32129 1.29785 8.59473 1.55762 8.60156 1.92676V2.76074H5.09473V1.92676ZM9.08008 13.7666C8.79297 13.7666 8.58105 13.5205 8.58789 13.2061L8.84082 5.57715C8.84766 5.26953 9.07324 5.02344 9.34668 5.02344C9.62695 5.02344 9.8457 5.2627 9.83887 5.57715L9.56543 13.2129C9.55859 13.541 9.35352 13.7666 9.08008 13.7666ZM4.62305 13.7666C4.34961 13.7666 4.14453 13.541 4.1377 13.2129L3.87109 5.57715C3.85742 5.2627 4.07617 5.02344 4.35645 5.02344C4.62305 5.02344 4.85547 5.26953 4.8623 5.57715L5.1084 13.2061C5.12207 13.5205 4.91016 13.7666 4.62305 13.7666ZM7.35742 13.2197C7.35742 13.5205 7.11816 13.7666 6.85156 13.7666C6.58496 13.7666 6.35254 13.5205 6.35254 13.2197L6.3457 5.57031C6.3457 5.26953 6.58496 5.02344 6.85156 5.02344C7.125 5.02344 7.35742 5.26953 7.35742 5.57031V13.2197Z" fill="#EB6D66"/>
</svg>
