<svg width="9" height="6" viewBox="0 0 9 6" fill="none" xmlns="http://www.w3.org/2000/svg">
<path d="M4.5 5.28809C4.68018 5.28809 4.83398 5.21777 4.97461 5.07275L8.2793 1.69336C8.39355 1.5791 8.45068 1.44287 8.45068 1.28027C8.45068 0.950684 8.18701 0.682617 7.85742 0.682617C7.69922 0.682617 7.54541 0.75293 7.42676 0.871582L4.50439 3.87744L1.57324 0.871582C1.45459 0.75293 1.30518 0.682617 1.13818 0.682617C0.812988 0.682617 0.549316 0.950684 0.549316 1.28027C0.549316 1.44287 0.61084 1.5791 0.720703 1.69336L4.02539 5.07715C4.17041 5.21777 4.31982 5.28809 4.5 5.28809Z" fill="#C4C4C4"/>
</svg>
