<svg width="13" height="13" viewBox="0 0 13 13" fill="none" xmlns="http://www.w3.org/2000/svg">
<path d="M6.23633 12.957C7.08789 12.957 7.88672 12.7949 8.63281 12.4707C9.37891 12.1504 10.0352 11.7051 10.6016 11.1348C11.1719 10.5684 11.6191 9.91211 11.9434 9.16602C12.2676 8.41992 12.4297 7.62109 12.4297 6.76953C12.4297 5.92188 12.2676 5.125 11.9434 4.37891C11.6191 3.63281 11.1719 2.97461 10.6016 2.4043C10.0352 1.83398 9.37695 1.38867 8.62695 1.06836C7.88086 0.744141 7.08398 0.582031 6.23633 0.582031C5.38867 0.582031 4.58984 0.744141 3.83984 1.06836C3.09375 1.38867 2.43555 1.83398 1.86523 2.4043C1.29883 2.97461 0.853516 3.63281 0.529297 4.37891C0.208984 5.125 0.0488281 5.92188 0.0488281 6.76953C0.0488281 7.62109 0.208984 8.41992 0.529297 9.16602C0.853516 9.91211 1.30078 10.5684 1.87109 11.1348C2.44141 11.7051 3.09961 12.1504 3.8457 12.4707C4.5918 12.7949 5.38867 12.957 6.23633 12.957ZM6.23633 11.416C5.5957 11.416 4.99414 11.2949 4.43164 11.0527C3.86914 10.8145 3.375 10.4844 2.94922 10.0625C2.52344 9.63672 2.19141 9.14258 1.95312 8.58008C1.71484 8.01758 1.5957 7.41406 1.5957 6.76953C1.5957 6.125 1.71484 5.52344 1.95312 4.96484C2.19141 4.40234 2.52344 3.9082 2.94922 3.48242C3.375 3.05664 3.86719 2.72461 4.42578 2.48633C4.98828 2.24414 5.5918 2.12305 6.23633 2.12305C6.88086 2.12305 7.48242 2.24414 8.04102 2.48633C8.60352 2.72461 9.09766 3.05664 9.52344 3.48242C9.94922 3.9082 10.2832 4.40234 10.5254 4.96484C10.7676 5.52344 10.8887 6.125 10.8887 6.76953C10.8887 7.41406 10.7676 8.01758 10.5254 8.58008C10.2871 9.14258 9.95508 9.63672 9.5293 10.0625C9.10352 10.4844 8.60938 10.8145 8.04688 11.0527C7.48438 11.2949 6.88086 11.416 6.23633 11.416ZM6.24219 7.60156C6.63672 7.60156 6.8418 7.39844 6.85742 6.99219L6.95117 4.57812C6.96289 4.37109 6.90039 4.20312 6.76367 4.07422C6.63086 3.94141 6.45312 3.875 6.23047 3.875C6.01172 3.875 5.83398 3.94141 5.69727 4.07422C5.56445 4.20312 5.50391 4.36914 5.51562 4.57227L5.60352 6.99805C5.62305 7.40039 5.83594 7.60156 6.24219 7.60156ZM6.24219 9.61133C6.46094 9.61133 6.64453 9.54688 6.79297 9.41797C6.94141 9.28906 7.01562 9.11914 7.01562 8.9082C7.01562 8.69727 6.94141 8.52734 6.79297 8.39844C6.64453 8.26953 6.46094 8.20508 6.24219 8.20508C6.01953 8.20508 5.83203 8.26953 5.67969 8.39844C5.53125 8.52734 5.45703 8.69727 5.45703 8.9082C5.45703 9.11914 5.53125 9.28906 5.67969 9.41797C5.83203 9.54688 6.01953 9.61133 6.24219 9.61133Z" fill="#FFA14A"/>
</svg>
