<svg width="21" height="18" viewBox="0 0 21 18" fill="none" xmlns="http://www.w3.org/2000/svg">
<path d="M18.3201 2.79168C17.3042 1.77317 15.9576 1.15153 14.5235 1.03905C13.0894 0.926574 11.6623 1.33067 10.5001 2.17835C9.28077 1.27142 7.76309 0.860173 6.25269 1.02743C4.74229 1.19468 3.35136 1.92801 2.35999 3.07974C1.36863 4.23147 0.850473 5.71606 0.909869 7.23453C0.969265 8.753 1.6018 10.1926 2.6801 11.2633L8.63135 17.2242C9.1297 17.7146 9.80089 17.9895 10.5001 17.9895C11.1993 17.9895 11.8705 17.7146 12.3689 17.2242L18.3201 11.2633C19.439 10.1376 20.0671 8.61478 20.0671 7.02752C20.0671 5.44025 19.439 3.91747 18.3201 2.79168ZM16.9688 9.94085L11.0176 15.8921C10.9499 15.9605 10.8693 16.0148 10.7805 16.0518C10.6916 16.0889 10.5963 16.1079 10.5001 16.1079C10.4039 16.1079 10.3086 16.0889 10.2197 16.0518C10.1309 16.0148 10.0503 15.9605 9.9826 15.8921L4.03135 9.9121C3.27979 9.14385 2.85894 8.11184 2.85894 7.0371C2.85894 5.96236 3.27979 4.93035 4.03135 4.1621C4.79721 3.40596 5.83012 2.98198 6.90635 2.98198C7.98258 2.98198 9.01549 3.40596 9.78135 4.1621C9.87044 4.25192 9.97643 4.32322 10.0932 4.37187C10.21 4.42052 10.3353 4.44557 10.4618 4.44557C10.5883 4.44557 10.7135 4.42052 10.8303 4.37187C10.9471 4.32322 11.0531 4.25192 11.1422 4.1621C11.908 3.40596 12.941 2.98198 14.0172 2.98198C15.0934 2.98198 16.1263 3.40596 16.8922 4.1621C17.6541 4.92028 18.0887 5.9467 18.1031 7.02146C18.1174 8.09623 17.7103 9.13387 16.9688 9.9121V9.94085Z" fill="#9C0E43"/>
</svg>
