<svg width="31" height="31" viewBox="0 0 31 31" fill="none" xmlns="http://www.w3.org/2000/svg">
<path d="M27.513 9.06085H11.4434" stroke="#191919" stroke-width="0.93" stroke-miterlimit="10" stroke-linecap="round" stroke-linejoin="round"/>
<path d="M6.85095 9.06085H4.26245" stroke="#191919" stroke-width="0.93" stroke-miterlimit="10" stroke-linecap="round" stroke-linejoin="round"/>
<path d="M27.5136 21.9391H17.5657" stroke="#191919" stroke-width="0.93" stroke-miterlimit="10" stroke-linecap="round" stroke-linejoin="round"/>
<path d="M12.9727 21.9391H4.26245" stroke="#191919" stroke-width="0.93" stroke-miterlimit="10" stroke-linecap="round" stroke-linejoin="round"/>
<path d="M18.0931 15.5H4.26245" stroke="#191919" stroke-width="0.93" stroke-miterlimit="10" stroke-linecap="round" stroke-linejoin="round"/>
<path d="M27.5124 15.5H22.6849" stroke="#191919" stroke-width="0.93" stroke-miterlimit="10" stroke-linecap="round" stroke-linejoin="round"/>
<path d="M9.14638 11.3562C10.4142 11.3562 11.4419 10.3284 11.4419 9.06063C11.4419 7.7928 10.4142 6.76508 9.14638 6.76508C7.87856 6.76508 6.85083 7.7928 6.85083 9.06063C6.85083 10.3284 7.87856 11.3562 9.14638 11.3562Z" stroke="#9C0E43" stroke-width="0.93" stroke-miterlimit="10" stroke-linecap="round" stroke-linejoin="round"/>
<path d="M15.2698 24.2345C16.5376 24.2345 17.5653 23.2068 17.5653 21.939C17.5653 20.6712 16.5376 19.6434 15.2698 19.6434C14.002 19.6434 12.9742 20.6712 12.9742 21.939C12.9742 23.2068 14.002 24.2345 15.2698 24.2345Z" stroke="#9C0E43" stroke-width="0.93" stroke-miterlimit="10" stroke-linecap="round" stroke-linejoin="round"/>
<path d="M20.3889 17.7964C21.6568 17.7964 22.6845 16.7686 22.6845 15.5008C22.6845 14.233 21.6568 13.2053 20.3889 13.2053C19.1211 13.2053 18.0934 14.233 18.0934 15.5008C18.0934 16.7686 19.1211 17.7964 20.3889 17.7964Z" stroke="#9C0E43" stroke-width="0.93" stroke-miterlimit="10" stroke-linecap="round" stroke-linejoin="round"/>
</svg>
