<svg width="22" height="18" viewBox="0 0 22 18" fill="none" xmlns="http://www.w3.org/2000/svg">
<path d="M14.5234 5.35547C15.6172 5.35547 16.5547 4.69141 16.9648 3.75391H20.0508C20.6074 3.75391 21.0664 3.26562 21.0664 2.69922C21.0664 2.11328 20.6074 1.63477 20.0508 1.63477H16.9746C16.5645 0.6875 15.6172 0.0234375 14.5234 0.0234375C13.4297 0.0234375 12.4922 0.6875 12.082 1.63477H1.52539C0.949219 1.63477 0.490234 2.12305 0.490234 2.69922C0.490234 3.25586 0.949219 3.75391 1.52539 3.75391H12.082C12.4922 4.69141 13.4297 5.35547 14.5234 5.35547ZM14.5234 3.93945C13.8301 3.93945 13.2734 3.38281 13.2734 2.68945C13.2734 1.97656 13.8301 1.43945 14.5234 1.43945C15.2363 1.43945 15.7734 1.97656 15.7734 2.68945C15.7734 3.38281 15.2363 3.93945 14.5234 3.93945ZM1.50586 7.82617C0.949219 7.82617 0.490234 8.30469 0.490234 8.88086C0.490234 9.44727 0.949219 9.94531 1.50586 9.94531H4.70898C5.11914 10.8828 6.05664 11.5469 7.15039 11.5469C8.24414 11.5469 9.18164 10.8828 9.60156 9.94531H20.0312C20.6074 9.94531 21.0664 9.45703 21.0664 8.88086C21.0664 8.30469 20.6074 7.82617 20.0312 7.82617H9.60156C9.19141 6.88867 8.24414 6.22461 7.15039 6.22461C6.06641 6.22461 5.11914 6.88867 4.70898 7.82617H1.50586ZM7.15039 10.1406C6.45703 10.1406 5.90039 9.57422 5.90039 8.88086C5.90039 8.17773 6.45703 7.63086 7.15039 7.63086C7.86328 7.63086 8.40039 8.17773 8.40039 8.88086C8.40039 9.57422 7.86328 10.1406 7.15039 10.1406ZM14.5234 17.7383C15.6172 17.7383 16.5645 17.0742 16.9746 16.127H20.0508C20.6074 16.127 21.0664 15.6484 21.0664 15.0723C21.0664 14.4863 20.6074 14.0176 20.0508 14.0176H16.9746C16.5645 13.0703 15.6172 12.4062 14.5234 12.4062C13.4297 12.4062 12.4922 13.0703 12.082 14.0176H1.52539C0.949219 14.0176 0.490234 14.4961 0.490234 15.0723C0.490234 15.6387 0.949219 16.127 1.52539 16.127H12.082C12.4922 17.0742 13.4297 17.7383 14.5234 17.7383ZM14.5234 16.3223C13.8301 16.3223 13.2734 15.7656 13.2734 15.0723C13.2734 14.3691 13.8301 13.8223 14.5234 13.8223C15.2363 13.8223 15.7734 14.3691 15.7734 15.0723C15.7734 15.7656 15.2363 16.3223 14.5234 16.3223Z" fill="#808080"/>
</svg>
