<svg width="11" height="18" viewBox="0 0 11 18" fill="none" xmlns="http://www.w3.org/2000/svg">
<path d="M9.31847 0C8.85805 0 8.48772 0.156521 8.16742 0.469564L0.630573 7.65C0.200182 8.07065 0.0100088 8.48152 0 9C0 9.5087 0.200182 9.93913 0.630573 10.35L8.15742 17.5402C8.48772 17.8435 8.86806 18 9.31847 18C10.2393 18 11 17.2761 11 16.3761C11 15.9261 10.7998 15.5152 10.4595 15.1728L3.92357 8.99022L10.4595 2.82717C10.8098 2.48478 11 2.07391 11 1.62391C11 0.733696 10.2393 0 9.31847 0Z" fill="#9C0E43"/>
</svg>
