<svg width="41" height="42" viewBox="0 0 41 42" fill="none" xmlns="http://www.w3.org/2000/svg">
<path d="M20.6719 41.0742C31.707 41.0742 40.8477 31.9531 40.8477 20.8984C40.8477 9.86328 31.707 0.722656 20.6523 0.722656C9.61719 0.722656 0.496094 9.86328 0.496094 20.8984C0.496094 31.9531 9.63672 41.0742 20.6719 41.0742ZM31.1602 20.8789C31.1602 21.4648 30.9453 21.8945 30.4766 22.3242L23.6016 29.1016C23.2695 29.4531 22.8789 29.6094 22.3711 29.6094C21.4336 29.6094 20.7305 28.8867 20.7305 27.9297C20.7305 27.4414 20.9453 26.9922 21.2773 26.6992L23.7188 24.3555L26.0039 22.5L21.8242 22.6953H11.9219C10.8867 22.6953 10.1641 21.9336 10.1641 20.8789C10.1641 19.8242 10.8867 19.0625 11.9219 19.0625H21.8242L26.0039 19.2578L23.6992 17.4219L21.2773 15.0781C20.9648 14.7656 20.7305 14.3164 20.7305 13.8477C20.7305 12.8711 21.4336 12.168 22.3711 12.168C22.8789 12.168 23.2695 12.3242 23.6016 12.6562L30.4766 19.4531C30.9648 19.9023 31.1602 20.332 31.1602 20.8789Z" fill="#28A33F"/>
</svg>
