<svg width="20" height="20" viewBox="0 0 20 20" fill="none" xmlns="http://www.w3.org/2000/svg">
<path d="M3.12402 14.9102H5.4707V13.1875H3.22949C2.81934 13.1875 2.50586 13.082 2.28906 12.8711C2.07812 12.6543 1.97266 12.332 1.97266 11.9043V3.24707C1.97266 2.81934 2.07812 2.5 2.28906 2.28906C2.50586 2.07227 2.81934 1.96387 3.22949 1.96387H11.9219C12.3262 1.96387 12.6367 2.07227 12.8535 2.28906C13.0703 2.5 13.1787 2.81934 13.1787 3.24707V5.16309H14.9102V3.09766C14.9102 2.16016 14.667 1.45117 14.1807 0.970703C13.6943 0.484375 12.9766 0.241211 12.0273 0.241211H3.12402C2.1748 0.241211 1.45703 0.481445 0.970703 0.961914C0.484375 1.44238 0.241211 2.1543 0.241211 3.09766V12.0537C0.241211 12.9971 0.484375 13.709 0.970703 14.1895C1.45703 14.6699 2.1748 14.9102 3.12402 14.9102ZM7.50098 19.0938H16.4043C17.3535 19.0938 18.0713 18.8506 18.5576 18.3643C19.0439 17.8838 19.2871 17.1748 19.2871 16.2373V7.27246C19.2871 6.34082 19.0439 5.63184 18.5576 5.14551C18.0713 4.65918 17.3535 4.41602 16.4043 4.41602H7.50098C6.55176 4.41602 5.83398 4.65918 5.34766 5.14551C4.86133 5.62598 4.61816 6.33496 4.61816 7.27246V16.2373C4.61816 17.1807 4.86133 17.8926 5.34766 18.373C5.83398 18.8535 6.55176 19.0938 7.50098 19.0938ZM7.60645 17.3711C7.19629 17.3711 6.88281 17.2627 6.66602 17.0459C6.44922 16.835 6.34082 16.5156 6.34082 16.0879V7.43066C6.34082 7.00293 6.44922 6.68359 6.66602 6.47266C6.88281 6.25586 7.19629 6.14746 7.60645 6.14746H16.2988C16.7031 6.14746 17.0137 6.25586 17.2305 6.47266C17.4473 6.68359 17.5557 7.00293 17.5557 7.43066V16.0879C17.5557 16.5156 17.4473 16.835 17.2305 17.0459C17.0137 17.2627 16.7031 17.3711 16.2988 17.3711H7.60645Z" fill="#9C0E43"/>
</svg>
