<svg width="13" height="20" viewBox="0 0 13 20" fill="none" xmlns="http://www.w3.org/2000/svg">
<path d="M1.38574 19.3047C1.62012 19.3047 1.83691 19.2314 2.03613 19.085C2.24121 18.9443 2.53418 18.6895 2.91504 18.3203L6.30762 14.9629C6.36035 14.9102 6.41016 14.9102 6.45703 14.9629L9.8584 18.3203C10.2393 18.6895 10.5293 18.9443 10.7285 19.085C10.9277 19.2314 11.1475 19.3047 11.3877 19.3047C11.7334 19.3047 12.0059 19.1904 12.2051 18.9619C12.4102 18.7393 12.5127 18.4316 12.5127 18.0391V2.71094C12.5127 1.83789 12.29 1.17578 11.8447 0.724609C11.3994 0.273438 10.7432 0.0478516 9.87598 0.0478516H2.88867C2.02148 0.0478516 1.36523 0.273438 0.919922 0.724609C0.474609 1.17578 0.251953 1.83789 0.251953 2.71094V18.0391C0.251953 18.4316 0.351562 18.7393 0.550781 18.9619C0.755859 19.1904 1.03418 19.3047 1.38574 19.3047ZM2.2207 16.4395C2.15625 16.498 2.09473 16.5186 2.03613 16.501C1.9834 16.4893 1.95703 16.4395 1.95703 16.3516V2.80762C1.95703 2.4502 2.04492 2.18652 2.2207 2.0166C2.40234 1.84082 2.67188 1.75293 3.0293 1.75293H9.74414C10.0957 1.75293 10.3594 1.84082 10.5352 2.0166C10.7168 2.18652 10.8076 2.4502 10.8076 2.80762V16.3516C10.8076 16.4395 10.7783 16.4893 10.7197 16.501C10.667 16.5186 10.6113 16.498 10.5527 16.4395L6.95801 12.959C6.77637 12.7832 6.58594 12.6953 6.38672 12.6953C6.1875 12.6953 5.99414 12.7832 5.80664 12.959L2.2207 16.4395Z" fill="#9C0E43"/>
</svg>
