<svg width="19" height="19" viewBox="0 0 19 19" fill="none" xmlns="http://www.w3.org/2000/svg">
<path d="M9.65234 18.7334C10.8945 18.7334 12.0635 18.4961 13.1592 18.0215C14.2549 17.5527 15.2217 16.8994 16.0596 16.0615C16.8975 15.2236 17.5537 14.2568 18.0283 13.1611C18.5029 12.0654 18.7402 10.8965 18.7402 9.6543C18.7402 8.41211 18.5029 7.24316 18.0283 6.14746C17.5537 5.05176 16.8975 4.08789 16.0596 3.25586C15.2217 2.41797 14.2549 1.76172 13.1592 1.28711C12.0635 0.8125 10.8916 0.575195 9.64355 0.575195C8.40137 0.575195 7.23242 0.8125 6.13672 1.28711C5.04688 1.76172 4.08301 2.41797 3.24512 3.25586C2.41309 4.08789 1.75977 5.05176 1.28516 6.14746C0.810547 7.24316 0.573242 8.41211 0.573242 9.6543C0.573242 10.8965 0.810547 12.0654 1.28516 13.1611C1.75977 14.2568 2.41309 15.2236 3.24512 16.0615C4.08301 16.8994 5.0498 17.5527 6.14551 18.0215C7.24121 18.4961 8.41016 18.7334 9.65234 18.7334ZM9.65234 16.9404C8.64453 16.9404 7.69824 16.7529 6.81348 16.3779C5.93457 16.0029 5.16113 15.4814 4.49316 14.8135C3.83105 14.1455 3.3125 13.3721 2.9375 12.4932C2.5625 11.6143 2.375 10.668 2.375 9.6543C2.375 8.64648 2.5625 7.70312 2.9375 6.82422C3.3125 5.93945 3.83105 5.16309 4.49316 4.49512C5.15527 3.82715 5.92578 3.30566 6.80469 2.93066C7.68945 2.55566 8.63574 2.36816 9.64355 2.36816C10.6572 2.36816 11.6035 2.55566 12.4824 2.93066C13.3613 3.30566 14.1348 3.82715 14.8027 4.49512C15.4766 5.16309 16.001 5.93945 16.376 6.82422C16.751 7.70312 16.9385 8.64648 16.9385 9.6543C16.9385 10.668 16.751 11.6143 16.376 12.4932C16.001 13.3721 15.4795 14.1455 14.8115 14.8135C14.1494 15.4814 13.376 16.0029 12.4912 16.3779C11.6123 16.7529 10.666 16.9404 9.65234 16.9404ZM8.73828 12.3438C9.41211 12.3438 10.0244 12.1797 10.5752 11.8516C11.126 11.5176 11.5654 11.0752 11.8936 10.5244C12.2275 9.97363 12.3945 9.36133 12.3945 8.6875C12.3945 8.01367 12.2275 7.40137 11.8936 6.85059C11.5654 6.29395 11.126 5.85156 10.5752 5.52344C10.0244 5.19531 9.41211 5.03125 8.73828 5.03125C8.07031 5.03125 7.45801 5.19824 6.90137 5.53223C6.35059 5.86035 5.9082 6.30273 5.57422 6.85938C5.24609 7.41016 5.08203 8.01953 5.08203 8.6875C5.08203 9.35547 5.24609 9.96777 5.57422 10.5244C5.9082 11.0752 6.35059 11.5176 6.90137 11.8516C7.45801 12.1797 8.07031 12.3438 8.73828 12.3438ZM8.73828 11.043C8.31055 11.043 7.91797 10.9375 7.56055 10.7266C7.20312 10.5098 6.91602 10.2227 6.69922 9.86523C6.48828 9.50781 6.38281 9.11523 6.38281 8.6875C6.38281 8.25391 6.48828 7.86133 6.69922 7.50977C6.91602 7.15234 7.20312 6.86816 7.56055 6.65723C7.91797 6.44043 8.31055 6.33203 8.73828 6.33203C9.17188 6.33203 9.56738 6.44043 9.9248 6.65723C10.2822 6.86816 10.5664 7.15234 10.7773 7.50977C10.9883 7.86133 11.0938 8.25391 11.0938 8.6875C11.0938 9.11523 10.9883 9.50781 10.7773 9.86523C10.5664 10.2227 10.2822 10.5098 9.9248 10.7266C9.56738 10.9375 9.17188 11.043 8.73828 11.043ZM13.3965 14.2158C13.6309 14.2158 13.8242 14.1396 13.9766 13.9873C14.1289 13.8291 14.2051 13.6299 14.2051 13.3896C14.2051 13.2783 14.1816 13.1729 14.1348 13.0732C14.0879 12.9678 14.0234 12.874 13.9414 12.792L11.2783 10.1201L10.0566 11.2627L12.7285 13.9346C12.9102 14.1221 13.1328 14.2158 13.3965 14.2158Z" fill="#9C0E43"/>
</svg>
