<svg width="19" height="19" viewBox="0 0 19 19" fill="none" xmlns="http://www.w3.org/2000/svg">
<path d="M9.65234 18.7334C10.8945 18.7334 12.0635 18.4961 13.1592 18.0215C14.2549 17.5527 15.2217 16.8994 16.0596 16.0615C16.8975 15.2236 17.5537 14.2568 18.0283 13.1611C18.5029 12.0654 18.7402 10.8965 18.7402 9.6543C18.7402 8.41211 18.5029 7.24316 18.0283 6.14746C17.5537 5.05176 16.8975 4.08789 16.0596 3.25586C15.2217 2.41797 14.2549 1.76172 13.1592 1.28711C12.0635 0.8125 10.8916 0.575195 9.64355 0.575195C8.40137 0.575195 7.23242 0.8125 6.13672 1.28711C5.04688 1.76172 4.08301 2.41797 3.24512 3.25586C2.41309 4.08789 1.75977 5.05176 1.28516 6.14746C0.810547 7.24316 0.573242 8.41211 0.573242 9.6543C0.573242 10.8965 0.810547 12.0654 1.28516 13.1611C1.75977 14.2568 2.41309 15.2236 3.24512 16.0615C4.08301 16.8994 5.0498 17.5527 6.14551 18.0215C7.24121 18.4961 8.41016 18.7334 9.65234 18.7334ZM9.65234 16.9404C8.64453 16.9404 7.69824 16.7529 6.81348 16.3779C5.93457 16.0029 5.16113 15.4814 4.49316 14.8135C3.83105 14.1455 3.3125 13.3721 2.9375 12.4932C2.5625 11.6143 2.375 10.668 2.375 9.6543C2.375 8.64648 2.5625 7.70312 2.9375 6.82422C3.3125 5.93945 3.83105 5.16309 4.49316 4.49512C5.15527 3.82715 5.92578 3.30566 6.80469 2.93066C7.68945 2.55566 8.63574 2.36816 9.64355 2.36816C10.6572 2.36816 11.6035 2.55566 12.4824 2.93066C13.3613 3.30566 14.1348 3.82715 14.8027 4.49512C15.4766 5.16309 16.001 5.93945 16.376 6.82422C16.751 7.70312 16.9385 8.64648 16.9385 9.6543C16.9385 10.668 16.751 11.6143 16.376 12.4932C16.001 13.3721 15.4795 14.1455 14.8115 14.8135C14.1494 15.4814 13.376 16.0029 12.4912 16.3779C11.6123 16.7529 10.666 16.9404 9.65234 16.9404ZM15.5146 15.4551L15.4795 15.3057C15.292 14.8721 14.9316 14.4561 14.3984 14.0576C13.8711 13.6533 13.2031 13.3252 12.3945 13.0732C11.5918 12.8154 10.6777 12.6865 9.65234 12.6865C8.63867 12.6865 7.72754 12.8154 6.91895 13.0732C6.11035 13.3252 5.43945 13.6533 4.90625 14.0576C4.37891 14.4561 4.02148 14.8691 3.83398 15.2969L3.79883 15.4551C4.34961 15.9648 4.97363 16.3926 5.6709 16.7383C6.36816 17.0898 7.06543 17.3564 7.7627 17.5381C8.46582 17.7197 9.0957 17.8105 9.65234 17.8105C10.2148 17.8105 10.8447 17.7197 11.542 17.5381C12.2393 17.3564 12.9365 17.0898 13.6338 16.7383C14.3311 16.3926 14.958 15.9648 15.5146 15.4551ZM9.65234 11.2363C10.2207 11.2422 10.7334 11.1016 11.1904 10.8145C11.6475 10.5215 12.0107 10.123 12.2803 9.61914C12.5498 9.10938 12.6846 8.54102 12.6846 7.91406C12.6846 7.32812 12.5469 6.78906 12.2715 6.29688C12.002 5.79883 11.6387 5.40039 11.1816 5.10156C10.7305 4.80273 10.2207 4.65332 9.65234 4.65332C9.08984 4.65332 8.57715 4.80273 8.11426 5.10156C7.65723 5.40039 7.29395 5.79883 7.02441 6.29688C6.75488 6.78906 6.62305 7.32812 6.62891 7.91406C6.63477 8.54102 6.76953 9.10645 7.0332 9.61035C7.30273 10.1084 7.66602 10.5039 8.12305 10.7969C8.58008 11.084 9.08984 11.2305 9.65234 11.2363Z" fill="#9C0E43"/>
</svg>
