<svg width="12" height="12" viewBox="0 0 12 12" fill="none" xmlns="http://www.w3.org/2000/svg">
 <path d="M0.735959 1.6079H11.264C11.6746 1.6079 12 1.25247 12 0.803949C12 0.35543 11.6746 0 11.264 0H0.735959C0.325371 0 0 0.35543 0 0.803949C0 1.25247 0.325371 1.6079 0.735959 1.6079ZM0.735959 6.80395H11.264C11.6746 6.80395 12 6.44852 12 6C12 5.55148 11.6746 5.19605 11.264 5.19605H0.735959C0.325371 5.19605 0 5.55148 0 6C0 6.44852 0.325371 6.80395 0.735959 6.80395ZM0.735959 12H11.264C11.6746 12 12 11.6446 12 11.1961C12 10.7475 11.6746 10.3921 11.264 10.3921H0.735959C0.325371 10.3921 0 10.7475 0 11.1961C0 11.6446 0.325371 12 0.735959 12Z" fill="black"/>
</svg>
