<svg width="15" height="10" viewBox="0 0 15 10" fill="none" xmlns="http://www.w3.org/2000/svg">
<path d="M11.6919 9.78418C11.7725 9.86475 11.8853 9.90771 11.9873 9.90771C12.2021 9.90771 12.4009 9.71436 12.4009 9.49414C12.4009 9.38672 12.3579 9.2793 12.2773 9.19873L3.2915 0.218262C3.21094 0.137695 3.10352 0.100098 2.99609 0.100098C2.78125 0.100098 2.58252 0.293457 2.58252 0.508301C2.58252 0.621094 2.62012 0.728516 2.70068 0.803711L11.6919 9.78418ZM12.1968 8.26416C13.8833 7.17383 14.8716 5.75586 14.8716 5.12744C14.8716 4.03711 11.8906 0.562012 7.48633 0.562012C6.57324 0.562012 5.71924 0.717773 4.93506 0.975586L6.33691 2.37207C6.68604 2.22168 7.07275 2.13574 7.48633 2.13574C9.15137 2.13574 10.4888 3.45166 10.4888 5.12744C10.4888 5.53564 10.4028 5.92773 10.2363 6.27148L12.1968 8.26416ZM7.48633 9.69287C8.47998 9.69287 9.40381 9.51562 10.231 9.22559L8.80762 7.80225C8.41553 8.00635 7.96436 8.11914 7.48633 8.11914C5.81055 8.11914 4.48389 6.76025 4.47852 5.12744C4.47852 4.64404 4.59131 4.1875 4.79541 3.78467L2.92627 1.90479C1.15381 2.99512 0.0957031 4.48291 0.0957031 5.12744C0.0957031 6.2124 3.13037 9.69287 7.48633 9.69287ZM9.19434 5.01465C9.19434 4.07471 8.43701 3.31201 7.48633 3.31201C7.4165 3.31201 7.34668 3.31738 7.28223 3.32275L9.18359 5.22412C9.18896 5.15967 9.19434 5.08447 9.19434 5.01465ZM5.77295 5.00391C5.77295 5.94922 6.55176 6.71191 7.4917 6.71191C7.56689 6.71191 7.63672 6.70654 7.71191 6.70117L5.78369 4.77295C5.77832 4.84814 5.77295 4.92871 5.77295 5.00391Z" fill="#808080"/>
</svg>
