<svg width="32" height="29" viewBox="0 0 32 29" fill="none" xmlns="http://www.w3.org/2000/svg">
<path d="M31.3697 13.41L18.7031 1.0767C18.4817 0.861091 18.1996 0.714254 17.8925 0.654757C17.5853 0.595261 17.267 0.625777 16.9777 0.742446C16.6884 0.859115 16.4411 1.0567 16.2672 1.31021C16.0932 1.56371 16.0003 1.86176 16.0003 2.16666V7.63174C11.6751 8.02155 7.65498 9.96882 4.72656 13.0925C1.79814 16.2162 0.172231 20.2915 0.166992 24.5208V26.8333C0.166967 27.1535 0.269317 27.4657 0.459834 27.7267C0.65035 27.9876 0.91958 28.1843 1.23015 28.2895C1.54072 28.3947 1.87721 28.4031 2.19293 28.3136C2.50864 28.2241 2.7879 28.0412 2.99194 27.7901C4.54305 25.994 6.44622 24.5168 8.59027 23.4449C10.7343 22.3731 13.0763 21.728 15.4792 21.5474C15.5581 21.5376 15.756 21.5226 16.0003 21.5075V26.8333C16.0003 27.1382 16.0932 27.4363 16.2672 27.6898C16.4411 27.9433 16.6884 28.1409 16.9777 28.2575C17.267 28.3742 17.5853 28.4047 17.8925 28.3452C18.1996 28.2857 18.4817 28.1389 18.7031 27.9233L31.3697 15.5899C31.5168 15.4468 31.6334 15.2769 31.713 15.0899C31.7926 14.9029 31.8336 14.7024 31.8336 14.5C31.8336 14.2976 31.7926 14.0971 31.713 13.9101C31.6334 13.7231 31.5168 13.5531 31.3697 13.41ZM19.167 23.1116V19.8958C19.167 19.6934 19.1261 19.4929 19.0466 19.3058C18.967 19.1187 18.8504 18.9487 18.7034 18.8056C18.5563 18.6624 18.3818 18.5489 18.1896 18.4714C17.9975 18.3939 17.7916 18.3541 17.5837 18.3542C17.1801 18.3542 15.5318 18.4302 15.1113 18.4852C10.8435 18.8679 6.78114 20.4466 3.41561 23.0303C3.7974 19.6299 5.45403 16.4861 8.06824 14.201C10.6825 11.9159 14.0705 10.65 17.5837 10.6458C17.7916 10.6459 17.9975 10.606 18.1896 10.5286C18.3818 10.4511 18.5563 10.3376 18.7034 10.1944C18.8504 10.0512 18.967 9.88126 19.0466 9.69419C19.1261 9.50712 19.167 9.30663 19.167 9.10416V5.88833L28.0114 14.5L19.167 23.1116Z" fill="#9C0E43"/>
</svg>
