<svg width="16" height="25" viewBox="0 0 16 25" fill="none" xmlns="http://www.w3.org/2000/svg">
<path d="M1.39062 24.832C1.85938 24.832 2.16406 24.5742 2.9375 23.8125L7.88281 18.832C7.92969 18.7734 8.02344 18.7734 8.08203 18.832L13.0156 23.8125C13.8008 24.5742 14.0938 24.832 14.5625 24.832C15.2305 24.832 15.6289 24.375 15.6289 23.6133V3.375C15.6289 1.30078 14.5625 0.234375 12.5117 0.234375H3.44141C1.39062 0.234375 0.335938 1.30078 0.335938 3.375V23.6133C0.335938 24.375 0.734375 24.832 1.39062 24.832ZM2.12891 22.4766C1.95312 22.6523 1.76562 22.6172 1.76562 22.3594V3.39844C1.76562 2.25 2.35156 1.65234 3.51172 1.65234H12.4531C13.6016 1.65234 14.1992 2.25 14.1992 3.39844V22.3594C14.1992 22.6172 14.0117 22.6523 13.8242 22.4766L8.51562 17.168C8.19922 16.8633 7.76562 16.8633 7.44922 17.168L2.12891 22.4766Z" fill="#9C0E43"/>
</svg>
