<svg width="17" height="17" viewBox="0 0 17 17" fill="none" xmlns="http://www.w3.org/2000/svg">
<path d="M3.44812 16.1738H13.5402C14.4941 16.1738 15.225 15.92 15.7326 15.4123C16.2403 14.9102 16.4941 14.185 16.4941 13.2366V3.11107C16.4941 2.16267 16.2403 1.43743 15.7326 0.935334C15.225 0.427664 14.4941 0.173828 13.5402 0.173828H3.44812C2.49414 0.173828 1.76332 0.427664 1.25565 0.935334C0.747976 1.43743 0.494141 2.16267 0.494141 3.11107V13.2366C0.494141 14.185 0.747976 14.9102 1.25565 15.4123C1.76332 15.92 2.49414 16.1738 3.44812 16.1738ZM7.62385 12.3579C7.43417 12.3579 7.26402 12.3189 7.11339 12.2408C6.96276 12.1571 6.8205 12.0344 6.68661 11.8726L4.72845 9.52948C4.63361 9.41232 4.56388 9.29796 4.51925 9.18638C4.47461 9.0748 4.4523 8.95765 4.4523 8.83492C4.4523 8.57829 4.54435 8.36072 4.72845 8.1822C4.91255 7.9981 5.13012 7.90605 5.38117 7.90605C5.53738 7.90605 5.67406 7.93673 5.79121 7.9981C5.91395 8.05946 6.0311 8.15988 6.14268 8.29935L7.60711 10.0901L10.8623 4.91023C11.0855 4.55319 11.3616 4.37466 11.6908 4.37466C11.9418 4.37466 12.1622 4.45835 12.3519 4.62571C12.5471 4.79307 12.6448 5.00507 12.6448 5.26169C12.6448 5.36769 12.6225 5.47648 12.5778 5.58805C12.5388 5.69963 12.4858 5.80842 12.4188 5.91441L8.52761 11.8558C8.41604 12.0176 8.28215 12.1431 8.12594 12.2324C7.97531 12.3161 7.80795 12.3579 7.62385 12.3579Z" fill="#808080"/>
</svg>
