<?xml version="1.0" encoding="UTF-8"?>
<svg xmlns="http://www.w3.org/2000/svg" xmlns:xlink="http://www.w3.org/1999/xlink" viewBox="0 0 25 25" width="25px" height="25px">
<g id="surface315406992">
<path style="fill-rule:nonzero;fill:rgb(0%,0%,0%);fill-opacity:1;stroke-width:12;stroke-linecap:butt;stroke-linejoin:round;stroke:rgb(61.176473%,5.490196%,26.274511%);stroke-opacity:1;stroke-miterlimit:10;" d="M 151.362299 55.043449 L 151.362299 70.507353 C 151.362299 71.455882 150.586229 72.231952 149.6377 72.231952 C 148.689171 72.231952 147.913101 71.455882 147.913101 70.507353 L 147.913101 55.043449 C 147.913101 39.866978 135.582219 27.507353 120.405748 27.507353 C 105.229278 27.507353 92.869652 39.866978 92.869652 55.043449 L 92.869652 68.811497 C 98.589572 68.811497 103.188502 73.410427 103.188502 79.130347 L 103.188502 130.724598 C 103.188502 136.415775 98.589572 141.043449 92.869652 141.043449 L 30.956551 141.043449 C 25.265374 141.043449 20.6377 136.415775 20.6377 130.724598 L 20.6377 79.130347 C 20.6377 73.410427 25.265374 68.811497 30.956551 68.811497 L 89.449197 68.811497 L 89.449197 55.043449 C 89.449197 37.96992 103.332219 24.086898 120.405748 24.086898 C 137.479278 24.086898 151.362299 37.96992 151.362299 55.043449 Z M 24.086898 79.130347 L 24.086898 130.724598 C 24.086898 134.518716 27.162433 137.594251 30.956551 137.594251 L 92.869652 137.594251 C 96.692513 137.594251 99.768048 134.518716 99.768048 130.724598 L 99.768048 79.130347 C 99.768048 75.307486 96.692513 72.231952 92.869652 72.231952 L 30.956551 72.231952 C 27.162433 72.231952 24.086898 75.307486 24.086898 79.130347 Z M 24.086898 79.130347 " transform="matrix(0.135901,0,0,0.135901,0.8125,0.8125)"/>
<path style=" stroke:none;fill-rule:nonzero;fill:rgb(61.176473%,5.490196%,26.274511%);fill-opacity:1;" d="M 17.175781 4.085938 C 14.855469 4.085938 12.96875 5.972656 12.96875 8.292969 L 12.96875 10.164062 L 5.019531 10.164062 C 4.246094 10.164062 3.617188 10.789062 3.617188 11.566406 L 3.617188 18.578125 C 3.617188 19.351562 4.246094 19.980469 5.019531 19.980469 L 13.433594 19.980469 C 14.210938 19.980469 14.835938 19.351562 14.835938 18.578125 L 14.835938 11.566406 C 14.835938 10.789062 14.210938 10.164062 13.433594 10.164062 L 13.433594 8.292969 C 13.433594 6.230469 15.113281 4.550781 17.175781 4.550781 C 19.238281 4.550781 20.914062 6.230469 20.914062 8.292969 L 20.914062 10.394531 C 20.914062 10.523438 21.019531 10.628906 21.148438 10.628906 C 21.277344 10.628906 21.382812 10.523438 21.382812 10.394531 L 21.382812 8.292969 C 21.382812 5.972656 19.496094 4.085938 17.175781 4.085938 Z M 5.019531 10.628906 L 13.433594 10.628906 C 13.953125 10.628906 14.371094 11.046875 14.371094 11.566406 L 14.371094 18.578125 C 14.371094 19.09375 13.953125 19.511719 13.433594 19.511719 L 5.019531 19.511719 C 4.503906 19.511719 4.085938 19.09375 4.085938 18.578125 L 4.085938 11.566406 C 4.085938 11.046875 4.503906 10.628906 5.019531 10.628906 Z M 5.019531 10.628906 "/>
</g>
</svg>
