<svg width="32" height="32" viewBox="0 0 32 32" fill="none" xmlns="http://www.w3.org/2000/svg">
<path d="M16 32C24.7373 32 32 24.7529 32 16C32 7.26275 24.7216 0 15.9843 0C7.23137 0 0 7.26275 0 16C0 24.7529 7.24706 32 16 32ZM9.42745 23.9216C8.37647 24.4235 7.57647 23.6078 8.07843 22.5725L12.4706 13.5686C12.7373 13.0353 13.0824 12.7059 13.5686 12.4706L22.5255 8.09412C23.6392 7.56078 24.4078 8.37647 23.8902 9.44314L19.5137 18.4314C19.2784 18.9176 18.9333 19.2784 18.4314 19.5137L9.42745 23.9216ZM16 17.9451C17.051 17.9451 17.9137 17.0824 17.9137 16.0157C17.9137 14.949 17.051 14.102 16 14.102C14.9333 14.102 14.0706 14.949 14.0706 16.0157C14.0706 17.0824 14.9333 17.9451 16 17.9451Z" fill="#808080"/>
</svg>
