<svg width="36" height="10" viewBox="0 0 36 10" fill="none" xmlns="http://www.w3.org/2000/svg">
<path d="M1.2922 3.81048L15.0623 9.19355C15.991 9.55645 17.1015 10 18.0101 10C18.8985 10 20.0292 9.55645 20.9579 9.19355L34.728 3.81048C35.5154 3.50806 36 2.82258 36 2.07661C36 0.887097 35.1318 0 33.9607 0C33.3752 0 32.5474 0.342742 32.0426 0.524194L18.0101 6.02823L3.97757 0.524194C3.45261 0.342742 2.66517 0 2.05945 0C0.8682 0 0 0.887097 0 2.07661C0 2.82258 0.504767 3.50806 1.2922 3.81048Z" fill="#9C0E43"/>
</svg>
